<svg version="1.2" xmlns="http://www.w3.org/2000/svg" viewBox="0 0 71 33" width="71" height="33">
	<path stroke="#000" stroke-linejoin="round" fill="#000" aria-label="Shopy"  d="m11.1 10v1.6q-1-0.4-1.8-0.6-0.9-0.3-1.6-0.3-1.4 0-2.2 0.6-0.7 0.5-0.7 1.5 0 0.8 0.5 1.2 0.5 0.4 1.9 0.7l1 0.2q1.9 0.4 2.7 1.3 0.9 0.9 0.9 2.4 0 1.8-1.2 2.7-1.2 0.9-3.5 0.9-0.9 0-1.9-0.2-1-0.2-2-0.5v-1.8q1 0.6 2 0.9 1 0.3 1.9 0.3 1.4 0 2.2-0.6 0.8-0.5 0.8-1.6 0-0.9-0.6-1.4-0.5-0.5-1.8-0.8l-1-0.2q-1.9-0.4-2.7-1.2-0.9-0.8-0.9-2.2 0-1.6 1.2-2.6 1.1-0.9 3.2-0.9 0.8 0 1.7 0.1 1 0.2 1.9 0.5zm11 6.4v5.6h-1.5v-5.6q0-1.3-0.5-1.9-0.5-0.7-1.6-0.7-1.2 0-1.9 0.8-0.7 0.8-0.7 2.1v5.3h-1.6v-12.9h1.6v5q0.5-0.8 1.3-1.2 0.7-0.4 1.7-0.4 1.6 0 2.4 1 0.8 1 0.8 2.9zm6.7-2.6q-1.3 0-2 0.9-0.7 1-0.7 2.7 0 1.6 0.7 2.6 0.7 0.9 2 0.9 1.2 0 1.9-0.9 0.7-1 0.7-2.6 0-1.7-0.7-2.7-0.7-0.9-1.9-0.9zm0-1.3q2 0 3.1 1.3 1.1 1.3 1.1 3.6 0 2.2-1.1 3.5-1.1 1.3-3.1 1.3-2 0-3.2-1.3-1.1-1.3-1.1-3.5 0-2.3 1.1-3.6 1.2-1.3 3.2-1.3zm8.2 8.1v4.9h-1.5v-12.8h1.5v1.4q0.5-0.8 1.3-1.2 0.7-0.4 1.7-0.4 1.7 0 2.8 1.3 1 1.4 1 3.6 0 2.2-1 3.5-1.1 1.3-2.8 1.3-1 0-1.7-0.4-0.8-0.4-1.3-1.2zm5.2-3.2q0-1.7-0.7-2.7-0.6-0.9-1.9-0.9-1.2 0-1.9 0.9-0.7 1-0.7 2.7 0 1.6 0.7 2.6 0.7 1 1.9 1 1.3 0 1.9-1 0.7-1 0.7-2.6zm12.1-4.7l-4.1 10.2q-0.6 1.6-1.2 2.1-0.6 0.5-1.7 0.5h-1.2v-1.2h0.9q0.6 0 1-0.3 0.3-0.3 0.8-1.5l0.2-0.6-3.7-9.2h1.6l2.9 7.3 2.9-7.3z"/>
	<path fill="#000" aria-label="®"  d="m63 6.2q-1 0-1.9 0.4-0.9 0.3-1.6 1.1-0.8 0.7-1.1 1.6-0.4 0.9-0.4 1.9 0 1 0.4 1.9 0.3 0.9 1.1 1.6 0.7 0.8 1.6 1.1 0.9 0.4 1.9 0.4 1 0 1.9-0.4 0.9-0.3 1.6-1.1 0.8-0.7 1.1-1.6 0.4-0.9 0.4-1.9 0-1-0.4-1.9-0.3-0.9-1.1-1.6-0.7-0.8-1.6-1.1-0.9-0.4-1.9-0.4zm0-0.8q1.2 0 2.2 0.4 1 0.5 1.9 1.3 0.8 0.9 1.3 1.9 0.4 1 0.4 2.2 0 1.2-0.4 2.2-0.5 1-1.3 1.9-0.9 0.8-1.9 1.3-1 0.4-2.2 0.4-1.2 0-2.2-0.4-1-0.5-1.9-1.3-0.8-0.9-1.3-1.9-0.4-1-0.4-2.2 0-1.2 0.4-2.2 0.5-1 1.3-1.9 0.9-0.8 1.9-1.3 1-0.4 2.2-0.4zm-0.2 3.2h-1v2.2h1q0.8 0 1.2-0.3 0.3-0.2 0.3-0.8 0-0.6-0.3-0.8-0.4-0.3-1.2-0.3zm-2.2-0.8h2.2q1.4 0 2.1 0.5 0.7 0.5 0.7 1.4 0 0.7-0.4 1.1-0.4 0.4-1.2 0.6 0.2 0 0.5 0.3 0.2 0.3 0.6 0.9l1 1.8h-1.3l-1-1.7q-0.5-0.7-0.8-0.9-0.2-0.2-0.7-0.2h-0.5v2.8h-1.2z"/>
</svg>